<?xml version="1.0" standalone="no"?>
<!DOCTYPE svg PUBLIC "-//W3C//DTD SVG 20010904//EN"
 "http://www.w3.org/TR/2001/REC-SVG-20010904/DTD/svg10.dtd">
<svg version="1.0" xmlns="http://www.w3.org/2000/svg"
 width="792.000000pt" height="792.000000pt" viewBox="0 0 792.000000 792.000000"
 preserveAspectRatio="xMidYMid meet">
<metadata>
Created by potrace 1.14, written by Peter Selinger 2001-2017
</metadata>
<g transform="translate(0.000000,792.000000) scale(0.100000,-0.100000)"
fill="#000000" stroke="none">
<path d="M3757 6494 c-4 -4 -7 -443 -7 -976 l0 -968 -717 -2 -718 -3 -3 -207
-2 -208 720 0 720 0 0 -1590 0 -1590 210 0 210 0 0 1590 0 1590 720 0 720 0
-2 208 -3 207 -717 3 -718 2 -2 973 -3 972 -201 3 c-110 1 -203 -1 -207 -4z"/>
</g>
</svg>
